<svg id="Layer_1" data-name="Layer 1" xmlns="http://www.w3.org/2000/svg" viewBox="0 0 148.8 15.38"><defs><style>.cls-1{fill:#00275b;}</style></defs><path class="cls-1" d="M145,5a2,2,0,0,1,.62,1.45,1.67,1.67,0,0,1-.47,1.23,1.63,1.63,0,0,1-1.22.48,2.11,2.11,0,0,1-1.54-.63A2.06,2.06,0,0,1,141.73,6a1.45,1.45,0,0,1,.5-1.14,1.75,1.75,0,0,1,1.24-.46A2.1,2.1,0,0,1,145,5m1.75-1.42c-.52,0-1.05,0-1.61-.06-.78-.05-1.27-.08-1.47-.08a4,4,0,0,0-1.75.38,3.14,3.14,0,0,0-1.25,1,2.49,2.49,0,0,0-.45,1.45,2.58,2.58,0,0,0,.24,1.09,2.76,2.76,0,0,0,.67.92,2.26,2.26,0,0,0,.53.36,3.31,3.31,0,0,0,.69.24l-.85.36a1.5,1.5,0,0,0-.38.27.41.41,0,0,0-.11.28,1.21,1.21,0,0,0,.12.48,1.23,1.23,0,0,0,.28.43,1.17,1.17,0,0,0,.8.29l.38,0h.81a6.26,6.26,0,0,1,2.57.4,1.28,1.28,0,0,1,.85,1.21,1.41,1.41,0,0,1-.38,1,2.39,2.39,0,0,1-1,.65,4.64,4.64,0,0,1-1.55.23,4,4,0,0,1-2.1-.48,1.51,1.51,0,0,1-.78-1.33.69.69,0,0,1,.19-.53,1.08,1.08,0,0,1,.56-.26,2.42,2.42,0,0,0-.91-.2,2,2,0,0,0-.84.17,1.14,1.14,0,0,0-.53.46,1.28,1.28,0,0,0-.19.71,1.7,1.7,0,0,0,.61,1.24,4.29,4.29,0,0,0,1.68.87,8.14,8.14,0,0,0,2.32.31,6.75,6.75,0,0,0,1.11-.08,5.87,5.87,0,0,0,1-.22,4.52,4.52,0,0,0,.88-.36,4.46,4.46,0,0,0,.76-.48,2.21,2.21,0,0,0,.84-1.79,2,2,0,0,0-.37-1.23,2.62,2.62,0,0,0-.69-.62,3.07,3.07,0,0,0-.87-.4,5.3,5.3,0,0,0-1.08-.2c-.38,0-1-.06-1.73-.07-.46,0-.7-.1-.7-.32a.33.33,0,0,1,.16-.26,1.43,1.43,0,0,1,.51-.17,6.61,6.61,0,0,0,1.68-.34,3.23,3.23,0,0,0,1.43-.92,2.1,2.1,0,0,0,.48-1.37,2.25,2.25,0,0,0-.29-1.14,3.29,3.29,0,0,0-.95-1,13.2,13.2,0,0,0,1.85.24c.24,0,.4-.07.47-.21l.49-1.08a17.84,17.84,0,0,1-2.08.14M132,3.64h-1.09a2.1,2.1,0,0,1,.45.41,1,1,0,0,1,.16.39,8,8,0,0,1,0,.85V9.74a7.88,7.88,0,0,1,0,.84,1,1,0,0,1-.16.4,2.38,2.38,0,0,1-.45.42h2.79a2.6,2.6,0,0,1-.44-.42,1,1,0,0,1-.16-.42,7.17,7.17,0,0,1,0-.82V6.34a1.64,1.64,0,0,1,.23-1,1.71,1.71,0,0,1,.67-.54,2.18,2.18,0,0,1,.93-.2,2.53,2.53,0,0,1,1,.2,1.76,1.76,0,0,1,.7.52,1.41,1.41,0,0,1,.28.63A4.9,4.9,0,0,1,137,7.06V9.74a5.5,5.5,0,0,1,0,.81.92.92,0,0,1-.16.43,3.25,3.25,0,0,1-.45.42h2.81a1.62,1.62,0,0,1-.54-.61,3.37,3.37,0,0,1-.1-1V6.88a8.26,8.26,0,0,0-.09-1.43,2.22,2.22,0,0,0-.31-.84,2.4,2.4,0,0,0-.64-.63,3.17,3.17,0,0,0-.91-.42,3.72,3.72,0,0,0-1-.15,2.84,2.84,0,0,0-1.31.29,4.19,4.19,0,0,0-1.18,1V3.32a1.32,1.32,0,0,1-1,.32M127.75.82a1,1,0,0,0-.32.74,1.05,1.05,0,0,0,.3.75,1.05,1.05,0,0,0,1.49,0,1.05,1.05,0,0,0,.3-.75,1,1,0,0,0-.29-.73,1,1,0,0,0-.73-.31,1,1,0,0,0-.75.3m.53,2.82h-1.16a2.27,2.27,0,0,1,.44.41.85.85,0,0,1,.16.39,8,8,0,0,1,0,.85V9.74a7.88,7.88,0,0,1,0,.84.85.85,0,0,1-.16.4,2.6,2.6,0,0,1-.44.42h2.78a2.6,2.6,0,0,1-.44-.42,1,1,0,0,1-.16-.42,7.17,7.17,0,0,1,0-.82V3.32a1.28,1.28,0,0,1-1,.32m-9.29,0h-1.08a2.27,2.27,0,0,1,.44.41.85.85,0,0,1,.16.39,7.25,7.25,0,0,1,0,.85V9.74a7.18,7.18,0,0,1,0,.84.85.85,0,0,1-.16.4,2.6,2.6,0,0,1-.44.42h2.78a2.6,2.6,0,0,1-.44-.42,1,1,0,0,1-.16-.42,7.82,7.82,0,0,1,0-.82V6.34a1.65,1.65,0,0,1,.22-1,1.71,1.71,0,0,1,.67-.54,2.18,2.18,0,0,1,.93-.2,2.53,2.53,0,0,1,1,.2,1.8,1.8,0,0,1,.71.52,1.53,1.53,0,0,1,.28.63,5.78,5.78,0,0,1,.08,1.06V9.74a5.5,5.5,0,0,1,0,.81.92.92,0,0,1-.16.43,2.38,2.38,0,0,1-.45.42h2.81a1.62,1.62,0,0,1-.54-.61,3.37,3.37,0,0,1-.1-1V6.88a8.26,8.26,0,0,0-.09-1.43,2.22,2.22,0,0,0-.31-.84,2.51,2.51,0,0,0-.63-.63,3.23,3.23,0,0,0-.92-.42,3.67,3.67,0,0,0-1-.15,2.84,2.84,0,0,0-1.31.29,4.19,4.19,0,0,0-1.18,1V3.32a1.32,1.32,0,0,1-1,.32M114.7,11a1,1,0,0,1-.16-.42,7.82,7.82,0,0,1,0-.82V7a2.68,2.68,0,0,1,.35-1.54,1.51,1.51,0,0,1,.61-.5,2,2,0,0,1,.84-.18,1.12,1.12,0,0,1,.8.27V3.47a3.66,3.66,0,0,0-.59-.06,2.15,2.15,0,0,0-1.17.33,2.48,2.48,0,0,0-.84,1V3.32a1.32,1.32,0,0,1-1,.32h-1.16a2.27,2.27,0,0,1,.44.41.85.85,0,0,1,.16.39,7.25,7.25,0,0,1,0,.85V9.74a7.18,7.18,0,0,1,0,.84.85.85,0,0,1-.16.4,2.6,2.6,0,0,1-.44.42h2.78a2.6,2.6,0,0,1-.44-.42M109,10.53a1.2,1.2,0,0,0,.51.59,1.84,1.84,0,0,0,.64.26,8.89,8.89,0,0,0,.94.13l.74-1.1a1.8,1.8,0,0,1-1-.27.94.94,0,0,1-.36-.46,4.61,4.61,0,0,1-.07-1V6.55a9.2,9.2,0,0,0-.06-1.29,1.93,1.93,0,0,0-.27-.72c-.47-.75-1.42-1.13-2.84-1.13a6.28,6.28,0,0,0-1.17.11l-1.11,1.69a9.41,9.41,0,0,1,1.3-.54,3.54,3.54,0,0,1,1-.13,2.47,2.47,0,0,1,.84.13,1.2,1.2,0,0,1,.57.38.82.82,0,0,1,.2.56.77.77,0,0,1-.37.69,5.52,5.52,0,0,1-1.53.46,8.28,8.28,0,0,0-2.21.65,1.64,1.64,0,0,0-.68.7,2,2,0,0,0-.26,1,2.44,2.44,0,0,0,.86,1.87,2.91,2.91,0,0,0,2,.65,4,4,0,0,0,.93-.1l1-1.25a4.64,4.64,0,0,1-1.27.22,2.12,2.12,0,0,1-1.31-.37,1.21,1.21,0,0,1-.47-1c0-.67.41-1.1,1.22-1.3l1.17-.28a4.41,4.41,0,0,0,.47-.14,3.91,3.91,0,0,0,.51-.22V9.36a4,4,0,0,0,.12,1.17M97.44,4.9a2.2,2.2,0,0,1,1.44-.49A2,2,0,0,1,101,6.3H96.67a2.5,2.5,0,0,1,.77-1.4m5.35,2.18a3.57,3.57,0,0,0-.29-1.47,3.39,3.39,0,0,0-.8-1.17,3.66,3.66,0,0,0-1.21-.76A4.24,4.24,0,0,0,99,3.41a4.8,4.8,0,0,0-1.55.24,3.71,3.71,0,0,0-1.25.73,4,4,0,0,0-.72.89A4.35,4.35,0,0,0,95,6.35a4.11,4.11,0,0,0-.17,1.15,3.9,3.9,0,0,0,.6,2.14,4.05,4.05,0,0,0,1.7,1.46,5.62,5.62,0,0,0,2.46.52,7.32,7.32,0,0,0,.81,0,4.46,4.46,0,0,0,.76-.13,5,5,0,0,0,.76-.23l.91-1.61a5.83,5.83,0,0,1-.88.51,4.48,4.48,0,0,1-.92.28,5.53,5.53,0,0,1-1,.09,3.87,3.87,0,0,1-1.74-.38A2.78,2.78,0,0,1,97.06,9a3.8,3.8,0,0,1-.46-1.68h6.19Zm-14-5.74A1.41,1.41,0,0,1,89,.71,1.24,1.24,0,0,1,89.5.32H86.31a1.37,1.37,0,0,1,.48.39,1.6,1.6,0,0,1,.22.63,8.11,8.11,0,0,1,.06,1.13V9.25A8,8,0,0,1,87,10.37a1.54,1.54,0,0,1-.22.63,1.29,1.29,0,0,1-.48.4h6.87l.9-2.24a6,6,0,0,1-1.49.82A5.12,5.12,0,0,1,91,10.2,16.18,16.18,0,0,1,88.76,10V2.47a8.41,8.41,0,0,1,0-1.13M76,9.05a3,3,0,0,1-2.53,1.4,2.38,2.38,0,0,1-1.67-.6,2.07,2.07,0,0,1-.65-1.56A3.15,3.15,0,0,1,72.65,5.8,39.84,39.84,0,0,0,76,9.05M72,2.88a1.37,1.37,0,0,1-.26-.78.88.88,0,0,1,.31-.7,1.16,1.16,0,0,1,.78-.27,1.25,1.25,0,0,1,.85.29,1,1,0,0,1,.34.76,2.23,2.23,0,0,1-1.08,1.69,6.11,6.11,0,0,1-.94-1m3.07.66a2.28,2.28,0,0,0,.3-1.18A2.12,2.12,0,0,0,74.69.74,2.45,2.45,0,0,0,73,.09a3,3,0,0,0-1.33.3,2.46,2.46,0,0,0-1,.83,2,2,0,0,0-.36,1.14,2.24,2.24,0,0,0,.12.73,3,3,0,0,0,.41.73,10.62,10.62,0,0,0,.82.94A11.61,11.61,0,0,0,70.28,6a4,4,0,0,0-.73,1.13,3.24,3.24,0,0,0-.22,1.23,3.07,3.07,0,0,0,.48,1.7,3.19,3.19,0,0,0,1.34,1.14,4.62,4.62,0,0,0,2,.4,4.47,4.47,0,0,0,1.44-.2,3,3,0,0,0,1.11-.61,5.58,5.58,0,0,0,1-1.15A10.17,10.17,0,0,0,78,10.73a4,4,0,0,0,1.1.55,3.81,3.81,0,0,0,1.15.16c.43,0,1.06,0,1.87,0q-1-.53-1.77-1A18.17,18.17,0,0,1,78.63,9.2c-.63-.5-1.34-1.12-2.12-1.84s-1.66-1.56-2.62-2.5a6.79,6.79,0,0,0,1.18-1.32M60.34,5A1.94,1.94,0,0,1,61,6.42a1.66,1.66,0,0,1-.46,1.23,1.63,1.63,0,0,1-1.22.48,2.09,2.09,0,0,1-1.54-.63A2,2,0,0,1,57.09,6a1.45,1.45,0,0,1,.51-1.14,1.73,1.73,0,0,1,1.24-.46,2.1,2.1,0,0,1,1.5.59m1.74-1.42c-.51,0-1,0-1.61-.06-.78-.05-1.26-.08-1.46-.08a4.12,4.12,0,0,0-1.76.38,3.14,3.14,0,0,0-1.25,1,2.49,2.49,0,0,0-.45,1.45,2.58,2.58,0,0,0,.24,1.09,2.79,2.79,0,0,0,.68.92,2.23,2.23,0,0,0,.52.36,3.81,3.81,0,0,0,.69.24l-.84.36a1.41,1.41,0,0,0-.39.27.4.4,0,0,0-.1.28,1.37,1.37,0,0,0,.11.48,1.39,1.39,0,0,0,.28.43,1.2,1.2,0,0,0,.81.29l.38,0h.81a6.2,6.2,0,0,1,2.56.4,1.27,1.27,0,0,1,.85,1.21,1.4,1.4,0,0,1-.37,1,2.39,2.39,0,0,1-1.05.65,4.74,4.74,0,0,1-1.56.23,4,4,0,0,1-2.09-.48,1.51,1.51,0,0,1-.78-1.33.72.72,0,0,1,.18-.53,1.12,1.12,0,0,1,.57-.26,2.42,2.42,0,0,0-.91-.2,2,2,0,0,0-.84.17,1.12,1.12,0,0,0-.54.46,1.36,1.36,0,0,0-.18.71,1.67,1.67,0,0,0,.61,1.24,4.31,4.31,0,0,0,1.67.87,8.21,8.21,0,0,0,2.33.31,6.63,6.63,0,0,0,1.1-.08,5.87,5.87,0,0,0,1-.22,4.61,4.61,0,0,0,.89-.36,4,4,0,0,0,.75-.48,2.21,2.21,0,0,0,.84-1.79,2,2,0,0,0-.36-1.23,2.68,2.68,0,0,0-.7-.62,3,3,0,0,0-.86-.4,5.27,5.27,0,0,0-1.09-.2c-.38,0-.95-.06-1.72-.07-.47,0-.7-.1-.7-.32a.3.3,0,0,1,.16-.26A1.36,1.36,0,0,1,59,9.18a6.62,6.62,0,0,0,1.67-.34,3.17,3.17,0,0,0,1.43-.92,2.06,2.06,0,0,0,.49-1.37,2.16,2.16,0,0,0-.3-1.14,3.05,3.05,0,0,0-.95-1,13.57,13.57,0,0,0,1.85.24q.38,0,.48-.21l.48-1.08a17.56,17.56,0,0,1-2.08.14m-14.7.09H46.3a2.1,2.1,0,0,1,.45.41.84.84,0,0,1,.15.39,5.52,5.52,0,0,1,0,.85V9.74a5.45,5.45,0,0,1,0,.84.84.84,0,0,1-.15.4,2.38,2.38,0,0,1-.45.42h2.79a2.25,2.25,0,0,1-.44-.42,1,1,0,0,1-.16-.42,5.39,5.39,0,0,1,0-.82V6.34a1.57,1.57,0,0,1,.23-1,1.68,1.68,0,0,1,.66-.54,2.18,2.18,0,0,1,.93-.2,2.54,2.54,0,0,1,1,.2,1.76,1.76,0,0,1,.7.52,1.53,1.53,0,0,1,.28.63,4.9,4.9,0,0,1,.09,1.06V9.74a7.4,7.4,0,0,1,0,.81.93.93,0,0,1-.17.43,2.38,2.38,0,0,1-.45.42h2.81a1.83,1.83,0,0,1-.54-.61,3.72,3.72,0,0,1-.1-1V6.88a8.49,8.49,0,0,0-.08-1.43,2.4,2.4,0,0,0-.31-.84A2.56,2.56,0,0,0,52.81,4a3.11,3.11,0,0,0-.92-.42,3.62,3.62,0,0,0-1-.15,2.87,2.87,0,0,0-1.31.29,4.33,4.33,0,0,0-1.18,1V3.32a1.31,1.31,0,0,1-1,.32M43.11.82a1,1,0,0,0-.31.74,1.05,1.05,0,0,0,.3.75,1.05,1.05,0,0,0,1.49,0,1.05,1.05,0,0,0,.3-.75,1,1,0,0,0-.3-.73,1,1,0,0,0-.72-.31,1.06,1.06,0,0,0-.76.3m.54,2.82H42.48a2.1,2.1,0,0,1,.45.41,1,1,0,0,1,.16.39,8,8,0,0,1,0,.85V9.74a7.88,7.88,0,0,1,0,.84,1,1,0,0,1-.16.4,2.38,2.38,0,0,1-.45.42h2.79a2.6,2.6,0,0,1-.44-.42,1,1,0,0,1-.16-.42,5.39,5.39,0,0,1,0-.82V3.32a1.3,1.3,0,0,1-1,.32M34.45.32H33.29a2.1,2.1,0,0,1,.45.41.76.76,0,0,1,.15.39,5.59,5.59,0,0,1,0,.86V9.74a5.45,5.45,0,0,1,0,.84.84.84,0,0,1-.15.4,2.38,2.38,0,0,1-.45.42h2.8a3,3,0,0,1-.46-.42,1,1,0,0,1-.15-.42,5.57,5.57,0,0,1,0-.82V6.66a5.65,5.65,0,0,1,.05-.9,1.11,1.11,0,0,1,.25-.48,1.77,1.77,0,0,1,.7-.5,2.46,2.46,0,0,1,.91-.17A1.92,1.92,0,0,1,39,5.32a1.22,1.22,0,0,1,.25.54,4.06,4.06,0,0,1,.07.9v3a5.57,5.57,0,0,1,0,.82.88.88,0,0,1-.16.43,2.1,2.1,0,0,1-.45.41h2.8a1.7,1.7,0,0,1-.54-.61,3.37,3.37,0,0,1-.1-1V6.24a4.58,4.58,0,0,0-.09-1,2.06,2.06,0,0,0-.32-.69,2.25,2.25,0,0,0-.63-.6,2.84,2.84,0,0,0-.83-.37,3.51,3.51,0,0,0-1-.13,3.82,3.82,0,0,0-1.47.29,2.5,2.5,0,0,0-1.05.78V0a1.32,1.32,0,0,1-1,.32M30,3.41a6,6,0,0,0-1.92.29,4.17,4.17,0,0,0-1.5.91,4,4,0,0,0-1.37,3.06,3.63,3.63,0,0,0,.34,1.57,3.75,3.75,0,0,0,1,1.27,4.35,4.35,0,0,0,1.46.82,5.32,5.32,0,0,0,1.83.29,6.19,6.19,0,0,0,2.15-.3l1-1.64a5.44,5.44,0,0,1-.86.45,4.65,4.65,0,0,1-.85.27,4.26,4.26,0,0,1-.86.09,3.8,3.8,0,0,1-1.76-.41A3.22,3.22,0,0,1,27.4,8.94,3,3,0,0,1,27,7.32a3,3,0,0,1,.34-1.46,2.36,2.36,0,0,1,1-1,3.07,3.07,0,0,1,1.47-.34,2.87,2.87,0,0,1,2.1.82V3.62A8,8,0,0,0,30,3.41m-7.91,7.12a1.2,1.2,0,0,0,.51.59,1.84,1.84,0,0,0,.64.26,8.89,8.89,0,0,0,.94.13l.74-1.1a1.82,1.82,0,0,1-1-.27.94.94,0,0,1-.36-.46,4.61,4.61,0,0,1-.07-1V6.55a11.84,11.84,0,0,0-.05-1.29,2.15,2.15,0,0,0-.28-.72c-.47-.75-1.42-1.13-2.84-1.13a6.28,6.28,0,0,0-1.17.11L18.05,5.21a9.41,9.41,0,0,1,1.3-.54,3.58,3.58,0,0,1,1-.13,2.43,2.43,0,0,1,.84.13,1.2,1.2,0,0,1,.57.38.83.83,0,0,1,.21.56.78.78,0,0,1-.38.69,5.42,5.42,0,0,1-1.52.46,8.38,8.38,0,0,0-2.22.65,1.64,1.64,0,0,0-.68.7,2,2,0,0,0-.26,1A2.44,2.44,0,0,0,17.76,11a2.91,2.91,0,0,0,2,.65,4,4,0,0,0,.93-.1l1-1.25a4.64,4.64,0,0,1-1.26.22,2.16,2.16,0,0,1-1.32-.37,1.21,1.21,0,0,1-.47-1c0-.67.41-1.1,1.22-1.3L21,7.54a4.41,4.41,0,0,0,.47-.14A3.41,3.41,0,0,0,22,7.18V9.36a4,4,0,0,0,.12,1.17M10.58,4.9A2.16,2.16,0,0,1,12,4.41,2,2,0,0,1,14.16,6.3H9.8a2.45,2.45,0,0,1,.78-1.4m5.34,2.18a3.74,3.74,0,0,0-.28-1.47,3.56,3.56,0,0,0-.81-1.17,3.66,3.66,0,0,0-1.21-.76,4.24,4.24,0,0,0-1.53-.27,4.84,4.84,0,0,0-1.55.24,3.81,3.81,0,0,0-1.25.73,4,4,0,0,0-.72.89,4.35,4.35,0,0,0-.48,1.08A4.11,4.11,0,0,0,7.92,7.5a3.9,3.9,0,0,0,.6,2.14,4.05,4.05,0,0,0,1.7,1.46,5.63,5.63,0,0,0,2.47.52,7.14,7.14,0,0,0,.8,0,4.76,4.76,0,0,0,.77-.13,4.89,4.89,0,0,0,.75-.23l.91-1.61a5.83,5.83,0,0,1-.88.51,4.48,4.48,0,0,1-.92.28,5.5,5.5,0,0,1-1,.09,3.92,3.92,0,0,1-1.75-.38A2.78,2.78,0,0,1,10.19,9a3.8,3.8,0,0,1-.46-1.68h6.19ZM8.46.29l-.65,0H1.48A2.7,2.7,0,0,1,.62.2L0,2.21A3.18,3.18,0,0,1,1,1.7a4.38,4.38,0,0,1,1.23-.13,11.35,11.35,0,0,1,1.35.06V9.25a8.21,8.21,0,0,1-.06,1.13,1.41,1.41,0,0,1-.22.63,1.29,1.29,0,0,1-.46.39H6.12a2.21,2.21,0,0,1-.55-.47,1.48,1.48,0,0,1-.27-.61,4.47,4.47,0,0,1-.08-.9V1.63H5.5c.54,0,.93-.06,1.18-.06a3.06,3.06,0,0,1,1.06.14,1,1,0,0,1,.52.5L8.8.2,8.46.29"/></svg>